Coordinates
version=1
nRows=10
nColumns=63
inDegrees=yes

Units are S.I. units (second, meters, Newtons, ...)
If the header above contains a line with 'inDegrees', this indicates whether rotational values are in degrees (yes) or radians (no).

endheader
time	pelvis_tilt	pelvis_list	pelvis_rotation	pelvis_tx	pelvis_ty	pelvis_tz	hip_flexion_r	hip_adduction_r	hip_rotation_r	knee_angle_r	knee_angle_r_beta	ankle_angle_r	subtalar_angle_r	mtp_angle_r	hip_flexion_l	hip_adduction_l	hip_rotation_l	knee_angle_l	knee_angle_l_beta	ankle_angle_l	subtalar_angle_l	mtp_angle_l	L5_S1_Flex_Ext	L5_S1_Lat_Bending	L5_S1_axial_rotation	L4_L5_Flex_Ext	L4_L5_Lat_Bending	L4_L5_axial_rotation	L3_L4_Flex_Ext	L3_L4_Lat_Bending	L3_L4_axial_rotation	L2_L3_Flex_Ext	L2_L3_Lat_Bending	L2_L3_axial_rotation	L1_L2_Flex_Ext	L1_L2_Lat_Bending	L1_L2_axial_rotation	L1_T12_Flex_Ext	L1_T12_Lat_Bending	L1_T12_axial_rotation	Abs_r3	Abs_r2	Abs_r1	Abs_t1	Abs_t2	neck_flexion	neck_bending	neck_rotation	arm_flex_r	arm_add_r	arm_rot_r	elbow_flex_r	pro_sup_r	wrist_flex_r	wrist_dev_r	arm_flex_l	arm_add_l	arm_rot_l	elbow_flex_l	pro_sup_l	wrist_flex_l	wrist_dev_l
      0.00000000	      1.06525507	     -4.37486679	     98.40735544	      0.18363009	      0.76984919	      0.88266262	      4.75506461	      1.24843492	     -1.31989290	     12.92351932	      0.22555796	     37.19770063	      2.36966432	      0.00000000	      1.36710154	     -0.38136263	     17.13384118	      3.22361543	      0.05626270	     32.19994173	    -12.36881537	      0.00000000	     -0.00450247	     -0.03129529	      0.44684776	     -0.00836153	     -0.04162273	      0.47477575	     -0.00739710	     -0.07609136	      0.47477575	     -0.00514587	     -0.07609136	      0.39099179	     -0.00418099	     -0.06381735	      0.36306381	     -0.00257271	     -0.04847640	      0.33513582	     -0.03216067	     -0.35401854	      2.48523320	      0.00000000	      0.00000000	     19.32088786	      7.15482892	    -10.89656207	      6.40024881	    -11.15731441	     40.39134524	     56.28034305	      2.68830919	    -23.19400208	     13.19175158	     23.39255249	     -2.03663011	     76.54353736	     43.17174677	     49.57620462	     -4.40973159	      0.71740417
      0.01694915	      0.57624687	     -4.69131029	     97.05244726	      0.18630517	      0.76928476	      0.88427213	      5.90427762	      0.80888808	      0.01796085	     14.23200402	      0.24839533	     37.13060624	      1.79641305	      0.00000000	      1.74718851	      0.17514665	     17.08083903	      3.68617203	      0.06433584	     31.84724034	    -14.05884373	      0.00000000	      0.00317865	     -0.10750690	      0.82652693	      0.00590307	     -0.14298418	      0.87818486	      0.00522220	     -0.26139229	      0.87818486	      0.00363288	     -0.26139229	      0.72321106	      0.00295169	     -0.21922808	      0.67155313	      0.00181628	     -0.16652820	      0.61989519	      0.02270477	     -1.21613961	      4.59689481	      0.00000000	      0.00000000	     19.68597642	      7.33535742	    -11.94247983	      4.44947084	    -10.31880642	     38.88848817	     56.25168765	      1.75919230	    -22.36928813	     13.48844834	     23.36949932	     -2.44476138	     77.21753394	     44.32174594	     52.26906497	     -5.07234066	      2.63515311
      0.03389831	      0.29525357	     -4.96554816	     95.87503811	      0.18824354	      0.76875571	      0.88570651	      6.87318585	      0.67626715	      1.74811737	     15.22787227	      0.26577651	     36.92815988	      0.58202678	      0.00000000	      2.08536998	      0.50502585	     16.98249827	      3.96107222	      0.06913375	     31.56388281	    -15.43451895	      0.00000000	      0.01104874	     -0.14530827	      1.09159679	      0.02051862	     -0.19326000	      1.15982159	      0.01815198	     -0.35330252	      1.15982159	      0.01262761	     -0.35330252	      0.95514719	      0.01025986	     -0.29631262	      0.88692239	      0.00631325	     -0.22508251	      0.81869759	      0.07892007	     -1.64375618	      6.07113386	      0.00000000	      0.00000000	     20.04044783	      7.19507851	    -12.30371724	      3.36444123	     -9.79300077	     38.30325572	     56.05978902	      1.44954746	    -21.17753805	     13.82675919	     23.19528630	     -2.83230237	     77.17596888	     45.12814450	     55.90735263	     -4.81320514	      4.36160732
      0.05084746	      0.13738797	     -5.21077637	     95.11854119	      0.18914451	      0.76832084	      0.88707676	      7.66387713	      0.53923216	      2.33702426	     15.98298173	      0.27895566	     36.95329461	      0.48769005	      0.00000000	      2.52330589	      0.72791447	     16.63256128	      4.32387362	      0.07546583	     31.55270055	    -15.94010853	      0.00000000	      0.02290992	     -0.15965406	      1.21028493	      0.04254601	     -0.21233990	      1.28592774	      0.03763871	     -0.38818288	      1.28592774	      0.02618375	     -0.38818288	      1.05899931	      0.02127415	     -0.32556655	      0.98335651	      0.01309073	     -0.24730414	      0.90771370	      0.16364326	     -1.80603863	      6.73124170	      0.00000000	      0.00000000	     20.25169945	      7.23472582	    -11.93478721	      3.13279364	     -9.70795966	     39.04671786	     55.91422274	      1.39417840	    -20.28721955	     13.66628994	     23.32762655	     -3.19017412	     77.94066964	     45.57578916	     57.26715697	     -4.30137026	      5.42603771
      0.06779661	      0.02378772	     -5.37777891	     94.09224703	      0.19032186	      0.76803646	      0.88804124	      8.26302919	      0.51202143	      3.19523842	     16.52008022	      0.28832979	     36.98827750	      0.48653961	      0.00000000	      2.72854679	      0.84347239	     15.87630345	      4.38514249	      0.07653517	     31.50637268	    -16.28974011	      0.00000000	      0.02549658	     -0.16796397	      1.34048154	      0.04734969	     -0.22339208	      1.42426163	      0.04188833	     -0.40838760	      1.42426163	      0.02914004	     -0.40838760	      1.17292134	      0.02367612	     -0.34251213	      1.08914125	      0.01456874	     -0.26017619	      1.00536115	      0.18211950	     -1.90004201	      7.45535616	      0.00000000	      0.00000000	     20.48060404	      7.30156120	    -11.66379464	      3.38589591	     -9.85538914	     40.65426279	     55.58866721	      1.52549334	    -18.01314113	     12.49928353	     23.37760121	     -3.59373265	     78.20305951	     45.97049802	     58.94372598	     -3.50266891	      6.68308886
      0.08474576	      0.10750028	     -5.57819738	     93.68719934	      0.19059949	      0.76767612	      0.88862655	      8.59790848	      0.61184872	      3.44247126	     16.59803783	      0.28969041	     36.99308513	      0.60866471	      0.00000000	      2.99527237	      0.76908158	     15.59195969	      4.38581062	      0.07654684	     31.54382662	    -16.41484394	      0.00000000	      0.04084188	     -0.14791630	      1.33324811	      0.07584745	     -0.19672868	      1.41657612	      0.06709912	     -0.35964370	      1.41657612	      0.04667818	     -0.35964370	      1.16659210	      0.03792577	     -0.30163092	      1.08326409	      0.02333705	     -0.22912235	      0.99993609	      0.29172945	     -1.67325879	      7.41512604	      0.00000000	      0.00000000	     20.77366024	      6.92836279	    -11.09245386	      3.64087497	     -9.91968342	     41.54754042	     55.51817189	      1.88198926	    -17.27235271	     12.03964259	     23.43887823	     -4.02001020	     78.67197159	     46.34652155	     59.36574596	     -2.98180798	      7.17816233
      0.10169492	      0.02847729	     -5.63618983	     93.04622160	      0.19081932	      0.76764660	      0.88904583	      8.79592426	      0.58359559	      4.07246883	     16.77930802	      0.29285417	     36.90130485	      0.44110477	      0.00000000	      3.07256983	      0.86010194	     14.87600069	      4.39247672	      0.07666318	     31.61340073	    -16.29208458	      0.00000000	      0.03814425	     -0.14273117	      1.27769043	      0.07083770	     -0.18983246	      1.35754609	      0.06266720	     -0.34703657	      1.35754609	      0.04359507	     -0.34703657	      1.11797913	      0.03542075	     -0.29105741	      1.03812348	      0.02179563	     -0.22109059	      0.95826783	      0.27246060	     -1.61460358	      7.10613088	      0.00000000	      0.00000000	     20.77612126	      7.27202814	     -9.95086400	      4.92897592	    -10.52355334	     45.41811469	     54.82138085	      2.25990316	    -13.51033658	      9.30531285	     22.79474385	     -4.44176733	     76.55309127	     46.54525459	     61.84187270	     -1.66300621	      8.83841114
      0.11864407	      0.07136722	     -5.75586115	     92.51151298	      0.19093200	      0.76745967	      0.88925402	      8.91372910	      0.59111844	      4.08957888	     16.72977358	      0.29198963	     36.86774356	      1.05687659	      0.00000000	      3.19106602	      0.81224696	     14.04210318	      4.35607488	      0.07602785	     31.74441804	    -15.84426428	      0.00000000	      0.04753079	     -0.11894292	      1.25111951	      0.08826943	     -0.15819409	      1.32931448	      0.07808834	     -0.28919782	      1.32931448	      0.05432294	     -0.28919782	      1.09472957	      0.04413709	     -0.24254841	      1.01653460	      0.02715909	     -0.18424259	      0.93833963	      0.33950770	     -1.34550612	      6.95835139	      0.00000000	      0.00000000	     20.84869551	      7.12586444	     -8.92670019	      5.47408153	    -10.72495509	     46.75859460	     54.69298184	      2.80040530	    -12.81295739	      8.98475708	     22.70124790	     -4.72192008	     76.16242540	     46.73797598	     60.60175333	     -1.63412878	      9.70777498
      0.13559322	      0.09463775	     -5.82626270	     92.34690802	      0.19075015	      0.76733066	      0.88923924	      8.86258087	      0.64233959	      4.46329689	     16.59381842	      0.28961677	     36.63840945	      0.64102274	      0.00000000	      3.24487568	      0.81123901	     14.14241235	      4.30670970	      0.07516626	     31.60697443	    -16.21876274	      0.00000000	      0.05121262	     -0.10139787	      1.16255648	      0.09510696	     -0.13485917	      1.23521626	      0.08413721	     -0.24653879	      1.23521626	      0.05853090	     -0.24653879	      1.01723692	      0.04755604	     -0.20677054	      0.94457714	      0.02926289	     -0.15706531	      0.87191736	      0.36580663	     -1.14703303	      6.46579035	      0.00000000	      0.00000000	     20.96010245	      7.16626290	     -7.90621307	      5.89634244	    -10.80622155	     47.88147769	     54.51468325	      3.66676868	    -12.40836505	      8.70477224	     22.34801256	     -4.98052213	     74.84693761	     46.97778452	     60.00439514	     -1.73104476	     10.80312815
      0.15254237	      0.07347553	     -5.84325642	     92.12932808	      0.19086871	      0.76728529	      0.88922988	      8.70751563	      0.64856850	      4.77733553	     16.38158238	      0.28591255	     36.39004463	      0.41713078	      0.00000000	      3.22438471	      0.82475221	     13.89427266	      4.25363495	      0.07423994	     31.54591065	    -16.17771263	      0.00000000	      0.05144210	     -0.09267307	      1.15523238	      0.09553312	     -0.12325518	      1.22743441	      0.08451422	     -0.22532529	      1.22743441	      0.05879317	     -0.22532529	      1.01082834	      0.04776913	     -0.18897892	      0.93862631	      0.02939401	     -0.14355058	      0.86642429	      0.36744575	     -1.04833626	      6.42505595	      0.00000000	      0.00000000	     20.95476835	      7.08604253	     -7.31888951	      5.99262882	    -10.81651263	     48.15434291	     54.44804070	      4.39915676	    -12.42748438	      8.92431358	     22.51062091	     -5.03014799	     74.80376730	     47.02058973	     57.51584892	     -2.57166715	     11.45116851
